<?xml version="1.0" encoding="utf-8"?>
<!-- Generator: Adobe Illustrator 16.0.0, SVG Export Plug-In . SVG Version: 6.00 Build 0)  -->
<!DOCTYPE svg PUBLIC "-//W3C//DTD SVG 1.1//EN" "http://www.w3.org/Graphics/SVG/1.1/DTD/svg11.dtd">
<svg version="1.1" id="Layer_1" xmlns="http://www.w3.org/2000/svg" xmlns:xlink="http://www.w3.org/1999/xlink" x="0px" y="0px"
	 width="288px" height="100.123px" viewBox="0 0 288 100.123" enable-background="new 0 0 288 100.123" xml:space="preserve">
<g>
	<path fill="#FFFFFF" d="M98.679,56.579c0,12.085-9.127,21.652-20.582,21.652c-11.392,0-20.582-9.631-20.582-21.59
		c0-12.398,9.063-22.03,20.645-22.03C89.679,34.613,98.679,44.243,98.679,56.579z M63.495,56.453c0,9.817,6.42,17.562,14.603,17.562
		c8.182,0,14.602-7.68,14.602-17.562c0-9.882-6.42-17.623-14.602-17.623C69.852,38.831,63.495,46.509,63.495,56.453z"/>
	<path fill="#FFFFFF" d="M125.172,45.816c-1.574-4.406-5.477-6.986-10.637-6.986c-4.784,0-8.434,3.02-8.434,6.986
		c0,2.769,0.943,4.344,3.524,5.728c0.944,0.504,2.958,1.322,6.986,2.77c8.182,3.021,11.392,6.23,11.392,11.52
		c0,7.301-5.979,12.398-14.476,12.398c-3.462,0-5.665-0.565-10.197-2.519c-0.44-0.188-0.755-0.252-1.07-0.252
		c-0.692,0-1.258,0.63-1.448,1.573V66.965c2.455,4.657,6.546,7.05,12.148,7.05c5.476,0,9.252-2.896,9.252-7.113
		c0-2.014-0.819-3.838-2.267-4.908c-1.384-1.07-3.335-1.951-8.497-3.776c-7.994-2.832-11.142-6.104-11.142-11.77
		c0-6.798,5.98-11.833,14.1-11.833c2.392,0,3.902,0.315,6.671,1.511c1.51,0.566,2.203,0.818,2.644,0.818
		c0.692,0,1.07-0.377,1.448-1.259v10.132H125.172z"/>
	<path fill="#FFFFFF" d="M152.732,35.431h3.588l10.824,35.436l7.616-32.101c0.126-0.44,0.188-0.881,0.188-1.196
		c0-1.069-0.377-1.636-1.573-2.14h7.931c-1.447,0.693-2.014,1.448-2.518,3.587l-9.126,38.708h-6.104l-9.883-32.415l-10.134,32.415
		h-5.979l-9.189-38.708c-0.503-2.329-0.881-2.832-2.329-3.587h9.252c-1.006,0.314-1.384,0.756-1.384,1.573
		c0,0.378,0.125,1.133,0.251,1.762l7.553,31.722L152.732,35.431z"/>
	<path fill="#FFFFFF" d="M187.57,73.448h16.365c2.33,0,3.021-0.441,3.84-2.456v6.421h-27.631c1.321-0.441,1.698-1.07,1.698-3.021
		V38.39c0-1.952-0.438-2.644-1.698-2.958h26.623v6.294c-0.565-1.825-1.259-2.328-3.336-2.328H187.57v14.287h14.414
		c1.699,0,2.328-0.438,2.896-1.949v7.805c-0.438-1.448-1.258-1.889-3.146-1.889h-14.162v15.797H187.57z"/>
	<path fill="#FFFFFF" d="M241.186,47.075c-2.453-5.538-6.23-8.245-11.644-8.245c-8.497,0-14.854,7.553-14.854,17.749
		c0,10.195,5.979,17.436,14.414,17.436c2.707,0,5.1-0.631,7.615-1.889v-9.943c0-2.016-0.503-2.645-2.517-3.211h10.321
		c-1.763,0.504-2.076,1.008-2.076,3.211V74.14c-4.344,2.771-8.938,4.092-13.973,4.092c-11.709,0-19.766-8.686-19.766-21.338
		c0-12.776,8.561-22.279,20.079-22.279c3.462,0,5.035,0.44,9.565,2.517c0.692,0.314,1.07,0.44,1.385,0.44
		c0.566,0,1.008-0.314,1.447-1.069v10.573H241.186z"/>
	<path fill="#FFFFFF" d="M288.046,56.579c0,12.085-9.127,21.652-20.582,21.652c-11.394,0-20.581-9.631-20.581-21.59
		c0-12.398,9.062-22.029,20.645-22.029C279.046,34.614,288.046,44.243,288.046,56.579z M252.861,56.454
		c0,9.816,6.42,17.561,14.603,17.561s14.603-7.68,14.603-17.561c0-9.883-6.42-17.624-14.603-17.624
		C259.219,38.831,252.861,46.509,252.861,56.454z"/>
	<path fill="#FFFFFF" d="M62.684,92.853c-0.581,0-1.575-0.22-2.061-0.533c-0.217-0.135-0.351-0.305-0.351-0.559
		c0-0.376,0.327-0.654,0.691-0.654c0.097,0,0.194,0.023,0.291,0.072c0.485,0.194,0.934,0.375,1.467,0.375
		c0.678,0,1.127-0.375,1.127-1.064c0-1.697-3.369-1.479-3.369-3.987c0-1.442,1.188-2.29,2.533-2.29c0.582,0,1.176,0.145,1.697,0.398
		c0.278,0.121,0.484,0.304,0.484,0.631c0,0.375-0.327,0.643-0.679,0.643c-0.109,0-0.206-0.023-0.303-0.061
		c-0.412-0.17-0.776-0.327-1.224-0.327c-0.582,0-0.982,0.278-0.982,0.896c0,1.526,3.357,1.369,3.357,3.976
		C65.363,91.931,64.175,92.853,62.684,92.853z"/>
	<path fill="#FFFFFF" d="M72.859,85.651h-1.285v6.484c0,0.389-0.315,0.665-0.703,0.665c-0.388,0-0.715-0.29-0.715-0.678v-5.987
		c0-0.266-0.218-0.484-0.473-0.484h-0.848c-0.376,0-0.679-0.277-0.679-0.631c0-0.351,0.303-0.642,0.679-0.642h4.023
		c0.364,0,0.667,0.291,0.667,0.642C73.526,85.374,73.223,85.651,72.859,85.651z"/>
	<path fill="#FFFFFF" d="M88.485,85.651H87.2v6.484c0,0.389-0.314,0.665-0.703,0.665c-0.388,0-0.715-0.29-0.715-0.678v-5.987
		c0-0.266-0.218-0.484-0.473-0.484H84.46c-0.375,0-0.678-0.277-0.678-0.631c0-0.351,0.303-0.642,0.678-0.642h4.023
		c0.364,0,0.667,0.291,0.667,0.642C89.152,85.374,88.849,85.651,88.485,85.651z"/>
	<path fill="#FFFFFF" d="M96.368,92.683h-3.042c-0.388,0-0.727-0.291-0.727-0.668v-6.968c0-0.376,0.339-0.68,0.727-0.68h3.03
		c0.364,0,0.666,0.278,0.666,0.631s-0.302,0.653-0.679,0.653h-2.314v1.576c0,0.268,0.218,0.484,0.484,0.484h1.333
		c0.364,0,0.667,0.278,0.667,0.63c0,0.353-0.303,0.632-0.667,0.632h-1.818v1.976c0,0.267,0.218,0.472,0.473,0.472h1.878
		c0.364,0,0.667,0.279,0.667,0.631S96.744,92.683,96.368,92.683z"/>
	<path fill="#FFFFFF" d="M109.034,92.853c-1.891,0-2.618-1.03-2.618-2.521V84.95c0-0.376,0.327-0.68,0.715-0.68
		c0.399,0,0.715,0.291,0.715,0.668v5.393c0,0.85,0.291,1.284,1.199,1.284c0.933,0,1.333-0.375,1.333-1.284V84.95
		c0-0.376,0.327-0.68,0.715-0.68c0.388,0,0.715,0.279,0.715,0.668v5.418C111.809,91.856,110.936,92.853,109.034,92.853z"/>
	<path fill="#FFFFFF" d="M120.912,92.692h-0.436c-0.242,0-0.521-0.12-0.63-0.362l-2.181-4.593c-0.037-0.062-0.073-0.086-0.098-0.086
		c-0.061,0-0.121,0.072-0.121,0.135v4.338c0,0.376-0.314,0.689-0.715,0.689c-0.388,0-0.715-0.289-0.715-0.666v-7.102
		c0-0.376,0.34-0.68,0.728-0.68h0.436c0.243,0,0.521,0.109,0.643,0.363l2.169,4.617c0.037,0.073,0.073,0.098,0.109,0.098
		c0.061,0,0.109-0.073,0.109-0.133v-4.388c0-0.376,0.328-0.68,0.715-0.68c0.387,0,0.715,0.278,0.715,0.667v7.102
		C121.639,92.392,121.312,92.692,120.912,92.692z"/>
	<path fill="#FFFFFF" d="M128.718,92.692h-2.715c-0.351,0-0.642-0.278-0.642-0.605c0-0.352,0.291-0.604,0.642-0.604h0.643v-5.479
		c0-0.229-0.194-0.411-0.424-0.411h-0.219c-0.351,0-0.642-0.279-0.642-0.617c0-0.328,0.291-0.606,0.642-0.606h2.715
		c0.352,0,0.63,0.278,0.63,0.606c0,0.338-0.279,0.605-0.63,0.605h-0.642v5.479c0,0.241,0.182,0.424,0.412,0.424h0.23
		c0.34,0,0.63,0.254,0.63,0.604C129.349,92.414,129.07,92.692,128.718,92.692z"/>
	<path fill="#FFFFFF" d="M136.101,92.366c-0.109,0.34-0.509,0.461-0.776,0.461c-0.254,0-0.667-0.121-0.763-0.461l-2.218-7.247
		c-0.133-0.437,0.243-0.824,0.728-0.824c0.46,0,0.703,0.376,0.776,0.679l1.43,5.441c0.011,0.036,0.036,0.072,0.072,0.072
		c0.049,0,0.073-0.036,0.073-0.072l1.394-5.466c0.084-0.304,0.303-0.654,0.775-0.654c0.485,0,0.86,0.39,0.728,0.824L136.101,92.366z
		"/>
	<path fill="#FFFFFF" d="M145.559,92.683h-3.042c-0.388,0-0.727-0.291-0.727-0.668v-6.968c0-0.376,0.339-0.68,0.727-0.68h3.03
		c0.364,0,0.667,0.278,0.667,0.631s-0.303,0.653-0.68,0.653h-2.314v1.576c0,0.268,0.218,0.484,0.485,0.484h1.333
		c0.362,0,0.667,0.278,0.667,0.63c0,0.353-0.305,0.632-0.667,0.632h-1.818v1.976c0,0.267,0.218,0.472,0.472,0.472h1.878
		c0.363,0,0.668,0.279,0.668,0.631S145.934,92.683,145.559,92.683z"/>
	<path fill="#FFFFFF" d="M160.423,92.853c-0.581,0-1.575-0.22-2.06-0.533c-0.219-0.135-0.353-0.305-0.353-0.559
		c0-0.376,0.327-0.654,0.69-0.654c0.098,0,0.195,0.024,0.292,0.072c0.483,0.194,0.933,0.375,1.466,0.375
		c0.68,0,1.128-0.375,1.128-1.064c0-1.697-3.37-1.479-3.37-3.987c0-1.442,1.188-2.29,2.533-2.29c0.582,0,1.176,0.145,1.697,0.398
		c0.277,0.121,0.482,0.304,0.482,0.631c0,0.375-0.326,0.643-0.678,0.643c-0.109,0-0.206-0.023-0.304-0.061
		c-0.411-0.17-0.775-0.327-1.224-0.327c-0.582,0-0.981,0.278-0.981,0.896c0,1.526,3.356,1.369,3.356,3.976
		C163.104,91.931,161.915,92.853,160.423,92.853z"/>
	<path fill="#FFFFFF" d="M169.532,92.692h-2.716c-0.352,0-0.643-0.278-0.643-0.605c0-0.352,0.291-0.604,0.643-0.604h0.643v-5.479
		c0-0.229-0.193-0.411-0.423-0.411h-0.22c-0.352,0-0.643-0.279-0.643-0.617c0-0.328,0.291-0.606,0.643-0.606h2.716
		c0.352,0,0.63,0.278,0.63,0.606c0,0.338-0.278,0.605-0.63,0.605h-0.642v5.479c0,0.241,0.18,0.424,0.411,0.424h0.229
		c0.34,0,0.63,0.254,0.63,0.604C170.162,92.414,169.884,92.692,169.532,92.692z"/>
	<path fill="#FFFFFF" d="M177.823,85.651h-1.285v6.484c0,0.389-0.313,0.665-0.702,0.665c-0.388,0-0.715-0.29-0.715-0.678v-5.987
		c0-0.266-0.219-0.484-0.473-0.484h-0.851c-0.375,0-0.678-0.277-0.678-0.631c0-0.351,0.303-0.642,0.678-0.642h4.024
		c0.363,0,0.666,0.291,0.666,0.642C178.489,85.374,178.188,85.651,177.823,85.651z"/>
	<path fill="#FFFFFF" d="M186.918,85.265l-2.084,3.879c-0.037,0.061-0.061,0.133-0.061,0.205v2.789c0,0.387-0.328,0.664-0.717,0.664
		s-0.715-0.289-0.715-0.678V89.19l-2.084-3.901c-0.049-0.097-0.086-0.194-0.086-0.304c0-0.387,0.34-0.68,0.715-0.68
		c0.268,0,0.522,0.146,0.645,0.377l1.296,2.424c0.062,0.108,0.134,0.205,0.255,0.205c0.133,0,0.193-0.097,0.243-0.205l1.319-2.447
		c0.121-0.231,0.363-0.376,0.631-0.376c0.375,0,0.715,0.29,0.715,0.666C186.99,85.06,186.967,85.167,186.918,85.265z"/>
	<path fill="#FFFFFF" d="M199.198,92.839c-2.485,0-2.812-2.848-2.812-4.254c0-1.479,0.327-4.398,2.812-4.398
		c2.52,0,2.798,2.944,2.798,4.398C201.996,89.979,201.718,92.839,199.198,92.839z M199.198,85.374c-1.334,0-1.347,2.436-1.347,3.223
		c0,0.704,0.035,3.092,1.347,3.092c1.331,0,1.296-2.399,1.296-3.092C200.494,87.834,200.529,85.374,199.198,85.374z"/>
	<path fill="#FFFFFF" d="M209.461,85.642h-2.314v1.611c0,0.254,0.219,0.473,0.473,0.473h1.346c0.363,0,0.666,0.278,0.666,0.631
		c0,0.352-0.303,0.629-0.666,0.629h-1.818v3.151c0,0.375-0.313,0.679-0.701,0.679c-0.4,0-0.729-0.304-0.729-0.679V85.06
		c0-0.389,0.34-0.691,0.729-0.691h3.029c0.362,0,0.666,0.279,0.666,0.644C210.141,85.351,209.836,85.642,209.461,85.642z"/>
	<path fill="#FFFFFF" d="M224.406,92.692h-0.438c-0.241,0-0.521-0.12-0.63-0.362l-2.183-4.593c-0.035-0.062-0.072-0.086-0.097-0.086
		c-0.061,0-0.121,0.072-0.121,0.135v4.338c0,0.376-0.315,0.689-0.715,0.689c-0.389,0-0.715-0.289-0.715-0.666v-7.102
		c0-0.376,0.338-0.68,0.727-0.68h0.437c0.242,0,0.521,0.109,0.644,0.363l2.17,4.617c0.035,0.073,0.072,0.098,0.108,0.098
		c0.062,0,0.108-0.073,0.108-0.133v-4.388c0-0.376,0.326-0.68,0.715-0.68s0.716,0.278,0.716,0.667v7.102
		C225.133,92.392,224.807,92.692,224.406,92.692z"/>
	<path fill="#FFFFFF" d="M233.107,92.683h-3.041c-0.389,0-0.728-0.291-0.728-0.668v-6.968c0-0.376,0.339-0.68,0.728-0.68h3.029
		c0.364,0,0.668,0.278,0.668,0.631s-0.304,0.653-0.681,0.653h-2.313v1.576c0,0.268,0.219,0.484,0.484,0.484h1.333
		c0.363,0,0.667,0.278,0.667,0.63c0,0.353-0.304,0.632-0.667,0.632h-1.817v1.976c0,0.267,0.219,0.472,0.473,0.472h1.879
		c0.363,0,0.667,0.279,0.667,0.631S233.484,92.683,233.107,92.683z"/>
	<path fill="#FFFFFF" d="M243.298,92.343c-0.084,0.375-0.532,0.484-0.774,0.484s-0.702-0.098-0.775-0.484l-0.934-4.425
		c-0.013-0.035-0.035-0.071-0.072-0.071c-0.049,0-0.073,0.036-0.073,0.071l-0.944,4.425c-0.072,0.389-0.533,0.484-0.775,0.484
		s-0.69-0.109-0.775-0.484l-1.636-7.261c-0.108-0.483,0.399-0.787,0.774-0.787c0.448,0,0.715,0.364,0.775,0.703l0.789,4.63
		c0.012,0.036,0.035,0.073,0.071,0.073s0.061-0.037,0.073-0.073l0.934-4.63c0.072-0.327,0.23-0.703,0.775-0.703
		c0.533,0,0.715,0.339,0.787,0.703l0.944,4.63c0,0.036,0.024,0.073,0.073,0.073c0.036,0,0.061-0.037,0.072-0.073l0.775-4.63
		c0.061-0.339,0.314-0.703,0.775-0.703c0.376,0,0.885,0.304,0.775,0.787L243.298,92.343z"/>
	<path fill="#FFFFFF" d="M259.418,85.265l-2.085,3.879c-0.035,0.061-0.062,0.133-0.062,0.205v2.789c0,0.387-0.326,0.664-0.715,0.664
		c-0.388,0-0.715-0.289-0.715-0.678V89.19l-2.085-3.901c-0.048-0.097-0.085-0.194-0.085-0.304c0-0.387,0.34-0.68,0.717-0.68
		c0.267,0,0.521,0.146,0.643,0.377l1.296,2.424c0.062,0.108,0.134,0.205,0.255,0.205c0.133,0,0.193-0.097,0.242-0.205l1.32-2.447
		c0.121-0.231,0.363-0.376,0.631-0.376c0.375,0,0.715,0.29,0.715,0.666C259.49,85.06,259.467,85.167,259.418,85.265z"/>
	<path fill="#FFFFFF" d="M265.085,92.839c-2.483,0-2.812-2.848-2.812-4.254c0-1.479,0.326-4.398,2.812-4.398
		c2.521,0,2.8,2.944,2.8,4.398C267.885,89.979,267.605,92.839,265.085,92.839z M265.085,85.374c-1.334,0-1.345,2.436-1.345,3.223
		c0,0.704,0.035,3.092,1.345,3.092c1.333,0,1.297-2.399,1.297-3.092C266.382,87.834,266.418,85.374,265.085,85.374z"/>
	<path fill="#FFFFFF" d="M284.993,92.802c-0.242,0-0.448-0.096-0.582-0.265l-2.397-3.14h-0.037v2.738
		c0,0.375-0.328,0.678-0.716,0.678c-0.399,0-0.715-0.313-0.715-0.689v-7.15c0-0.388,0.34-0.679,0.715-0.679
		c0.4,0,0.702,0.304,0.702,0.679v1.854c0,0.229,0.219,0.437,0.448,0.437l1.794-2.437c0.134-0.169,0.363-0.218,0.51-0.218
		c0.363,0,0.667,0.277,0.667,0.63c0,0.098-0.013,0.229-0.098,0.34l-2.036,2.678c-0.061,0.085-0.133,0.183-0.133,0.304
		c0,0.062,0,0.133,0.035,0.183l2.363,3.042c0.098,0.121,0.157,0.24,0.157,0.339C285.672,92.487,285.405,92.802,284.993,92.802z"/>
	<path fill="#FFFFFF" d="M81.089,92.851c-0.478,0-0.71-0.393-0.783-0.697l-0.263-0.736c-0.062-0.232-0.171-0.43-0.417-0.43h-1.897
		l-0.423,1.166c-0.074,0.306-0.318,0.697-0.784,0.697c-0.489,0-0.869-0.393-0.734-0.832l2.24-7.321
		c0.098-0.355,0.502-0.466,0.771-0.466c0.27,0,0.674,0.109,0.784,0.466l2.24,7.309C81.959,92.458,81.58,92.851,81.089,92.851z
		 M78.866,86.226c-0.012-0.048-0.037-0.072-0.073-0.072s-0.062,0.024-0.073,0.072l-0.617,2.694c-0.159,0.63-0.022,0.772,0.21,0.772
		l1.396-0.02L78.866,86.226z"/>
	<path fill="#FFFFFF" d="M154.212,92.849c-0.196,0-0.478-0.074-0.601-0.308l-1.615-3.085c-0.073-0.135-0.245-0.208-0.404-0.208
		h-0.514v2.899c0,0.394-0.33,0.688-0.723,0.688s-0.724-0.294-0.724-0.688V85c0-0.38,0.345-0.687,0.735-0.687h1.713
		c0.906,0,2.607,0.062,2.607,2.338c0,1.348-0.588,2.058-1.384,2.375c0.503,0.955,0.979,1.935,1.53,2.891
		c0.023,0.048,0.073,0.134,0.073,0.244C154.909,92.517,154.628,92.849,154.212,92.849z M152.016,85.478h-0.918l-0.021,2.176
		c0,0.27,0.221,0.49,0.478,0.49h0.295c0.819,0,1.373-0.084,1.396-1.467C153.261,85.61,152.727,85.478,152.016,85.478z"/>
	<path fill="#FFFFFF" d="M276.137,92.84c-0.197,0-0.478-0.073-0.601-0.307l-1.616-3.084c-0.072-0.136-0.244-0.208-0.404-0.208
		h-0.513v2.9c0,0.392-0.332,0.686-0.723,0.686c-0.394,0-0.724-0.294-0.724-0.686v-7.149c0-0.38,0.344-0.687,0.734-0.687h1.714
		c0.905,0,2.606,0.062,2.606,2.34c0,1.346-0.588,2.057-1.383,2.375c0.502,0.955,0.979,1.934,1.53,2.889
		c0.023,0.05,0.073,0.135,0.073,0.244C276.834,92.51,276.553,92.84,276.137,92.84z M273.939,85.469h-0.918L273,87.646
		c0,0.271,0.221,0.489,0.479,0.489h0.293c0.82,0,1.375-0.083,1.396-1.465C275.186,85.604,274.648,85.469,273.939,85.469z"/>
	<g>
		<path fill="#FFFFFF" d="M23.032,14.334c0,0-6.315,1.879-6.315,11.271l3.989,1.878l4.985-0.751
			C25.691,26.732,25.691,17.715,23.032,14.334L23.032,14.334z"/>
		<path fill="#FFFFFF" d="M24.029,14.709c0,0,5.723,0.967,7.436,10.541c0.087,0.486-0.524-0.184-0.456,0.354
			C31.009,25.605,29.568,17.715,24.029,14.709L24.029,14.709z"/>
		<polygon fill="#FFFFFF" points="12.23,27.546 19.986,29.217 19.986,37.566 6.691,48.002 6.691,40.07 4.106,40.07 		"/>
		<path fill="#FFFFFF" d="M31.065,29.634c0,0-12.064,4.731,1.477,11.689C32.542,41.323,24.417,35.756,31.065,29.634L31.065,29.634z"
			/>
		<path fill="#FFFFFF" d="M31.804,32.557c0,0-2.015,3.379,0.738,5.009C32.542,37.566,27.863,35.339,31.804,32.557L31.804,32.557z"/>
		<polyline fill="#FFFFFF" points="23.833,-0.076 22.725,3.542 22.725,14.536 23.697,14.709 		"/>
		<path fill="#FFFFFF" d="M22.256,14.647c0,0-0.393-2.895,0.915-2.881c0.886,0.011,0.443,0,0.443,0s1.024,0.282,0.803,2.913
			C24.417,14.678,23.53,15.367,22.256,14.647L22.256,14.647z"/>
		<path fill="#FFFFFF" d="M23.244,11.026c0.477,0,0.862-0.436,0.862-0.975c0-0.538-0.386-0.974-0.862-0.974
			s-0.861,0.436-0.861,0.974C22.383,10.59,22.769,11.026,23.244,11.026L23.244,11.026z"/>
		<path fill="#FFFFFF" d="M30.604,58.091c0,0,3.692-1.947,7.14,2.506L37.62,83.558C37.62,83.558,37.79,56.873,30.604,58.091
			L30.604,58.091z"/>
		<polygon fill="#FFFFFF" points="0.044,54.543 0.782,57.325 4.444,58.717 4.444,92.185 23.586,80.772 23.586,47.226 45.991,57.465 
			48.622,53.134 23.079,42.124 23.079,40.558 49.807,51.897 50.053,50.09 22.971,38.748 21.617,38.748 		"/>
		<polygon fill="#FFFFFF" points="0.566,96.08 2.659,98.028 4.26,100.047 22.232,92.185 24.325,91.487 24.325,85.366 48.945,94.41 
			49.561,92.463 24.202,84.112 22.424,84.112 		"/>
		<polygon fill="#FFFFFF" points="24.379,29.041 24.438,29.375 32.09,28.146 40.829,38.441 40.829,35.815 32.232,27.778 		"/>
	</g>
</g>
</svg>
