<?xml version="1.0" encoding="utf-8"?>
<!-- Generator: Adobe Illustrator 21.0.0, SVG Export Plug-In . SVG Version: 6.00 Build 0)  -->
<svg version="1.1" id="Layer_1" xmlns="http://www.w3.org/2000/svg" xmlns:xlink="http://www.w3.org/1999/xlink" x="0px" y="0px"
	 viewBox="0 0 85.8 187.1" style="enable-background:new 0 0 85.8 187.1;" xml:space="preserve">
<style type="text/css">
	.st0{fill:#FFFFFF;}
</style>
<title>oswego</title>
<path class="st0" d="M43,26.9c0,0-11.9,3.5-11.9,21.1l7.4,3.5l9.3-1.4C47.9,50.1,47.9,33.3,43,26.9L43,26.9L43,26.9z"/>
<path class="st0" d="M44.8,27.6c0,0,10.7,1.8,13.9,19.7c0.2,0.9-1-0.3-0.8,0.7C57.9,48,55.2,33.2,44.8,27.6L44.8,27.6L44.8,27.6z"/>
<polygon class="st0" points="22.8,51.6 37.3,54.7 37.3,70.3 12.4,89.8 12.4,75 7.6,75 22.8,51.6 "/>
<path class="st0" d="M58,55.5c0,0-22.5,8.8,2.8,21.8C60.8,77.3,45.6,66.9,58,55.5L58,55.5z"/>
<path class="st0" d="M59.3,61c0,0-3.8,6.3,1.4,9.4C60.7,70.4,52,66.2,59.3,61L59.3,61z"/>
<polyline class="st0" points="44.5,0 42.4,6.8 42.4,27.3 44.2,27.6 "/>
<path class="st0" d="M41.5,27.5c0,0-0.7-5.4,1.7-5.4c1.7,0,0.8,0,0.8,0s1.9,0.5,1.5,5.4C44.3,28.3,42.7,28.3,41.5,27.5L41.5,27.5
	L41.5,27.5z"/>
<path class="st0" d="M43.3,20.7c0.9,0,1.7-0.8,1.7-1.8c0,0,0,0,0,0c0.1-0.9-0.5-1.7-1.4-1.8c-0.9-0.1-1.7,0.5-1.8,1.4
	c0,0.1,0,0.2,0,0.4C41.7,19.9,42.4,20.7,43.3,20.7L43.3,20.7L43.3,20.7z"/>
<path class="st0" d="M57.1,108.7c0,0,6.9-3.7,13.3,4.7l-0.2,42.9C70.2,156.3,70.5,106.4,57.1,108.7
	C57.1,108.7,57.1,108.7,57.1,108.7z"/>
<polygon class="st0" points="0,102.1 1.4,107.2 8.2,109.8 8.2,172.4 44,151.1 44,88.4 85.8,107.5 90.8,99.4 43,78.8 43,75.9 
	93,97.1 93.4,93.7 42.8,72.5 40.3,72.5 "/>
<polygon class="st0" points="1,179.7 4.9,183.3 7.9,187.1 41.5,172.4 45.4,171.1 45.4,159.6 91.4,176.5 92.5,172.9 45.1,157.3 
	41.8,157.3 "/>
<polygon class="st0" points="45.5,54.4 45.6,55 59.9,52.7 76.2,72 76.2,67.1 60.1,52 "/>
</svg>
