<?xml version="1.0" encoding="utf-8"?>
<!-- Generator: Adobe Illustrator 19.1.0, SVG Export Plug-In . SVG Version: 6.00 Build 0)  -->
<svg version="1.1" id="Layer_1" xmlns="http://www.w3.org/2000/svg" xmlns:xlink="http://www.w3.org/1999/xlink" x="0px" y="0px"
	 viewBox="0 0 538.1 187.1" style="enable-background:new 0 0 538.1 187.1;" xml:space="preserve">
<style type="text/css">
	.st0{fill:#006330;}
</style>
<g>
	<path class="st0" d="M184.3,105.9c0,22.6-17.1,40.5-38.5,40.5c-21.3,0-38.5-18-38.5-40.3c0-23.2,16.9-41.2,38.6-41.2
		C167.5,64.8,184.3,82.8,184.3,105.9z M118.6,105.6c0,18.3,12,32.8,27.3,32.8c15.3,0,27.3-14.3,27.3-32.8c0-18.5-12-32.9-27.3-32.9
		C130.4,72.7,118.6,87,118.6,105.6z"/>
	<path class="st0" d="M233.8,85.7c-2.9-8.2-10.2-13.1-19.9-13.1c-8.9,0-15.8,5.6-15.8,13.1c0,5.2,1.8,8.1,6.6,10.7
		c1.8,0.9,5.5,2.5,13.1,5.2c15.3,5.6,21.3,11.6,21.3,21.5c0,13.6-11.2,23.2-27,23.2c-6.5,0-10.6-1.1-19.1-4.7
		c-0.8-0.4-1.4-0.5-2-0.5c-1.3,0-2.4,1.2-2.7,2.9v-18.8c4.6,8.7,12.2,13.2,22.7,13.2c10.2,0,17.3-5.4,17.3-13.3
		c0-3.8-1.5-7.2-4.2-9.2c-2.6-2-6.2-3.6-15.9-7.1c-14.9-5.3-20.8-11.4-20.8-22c0-12.7,11.2-22.1,26.3-22.1c4.5,0,7.3,0.6,12.5,2.8
		c2.8,1.1,4.1,1.5,4.9,1.5c1.3,0,2-0.7,2.7-2.4V85.7z"/>
	<path class="st0" d="M285.3,66.3h6.7l20.2,66.2l14.2-60c0.2-0.8,0.4-1.6,0.4-2.2c0-2-0.7-3.1-2.9-4h14.8c-2.7,1.3-3.8,2.7-4.7,6.7
		l-17.1,72.3h-11.4L287,84.8l-18.9,60.6h-11.2L239.8,73c-0.9-4.4-1.6-5.3-4.4-6.7h17.3c-1.9,0.6-2.6,1.4-2.6,2.9
		c0,0.7,0.2,2.1,0.5,3.3l14.1,59.3L285.3,66.3z"/>
	<path class="st0" d="M350.4,137.4H381c4.4,0,5.6-0.8,7.2-4.6v12h-51.6c2.5-0.8,3.2-2,3.2-5.6V71.9c0-3.6-0.8-4.9-3.2-5.5h49.7v11.8
		c-1.1-3.4-2.4-4.3-6.2-4.3h-29.6v26.7h26.9c3.2,0,4.4-0.8,5.4-3.6v14.6c-0.8-2.7-2.4-3.5-5.9-3.5h-26.5V137.4z"/>
	<path class="st0" d="M450.6,88.1c-4.6-10.3-11.6-15.4-21.8-15.4c-15.9,0-27.8,14.1-27.8,33.2c0,19.1,11.2,32.6,26.9,32.6
		c5.1,0,9.5-1.2,14.2-3.5v-18.6c0-3.8-0.9-4.9-4.7-6h19.3c-3.3,0.9-3.9,1.9-3.9,6v22.3c-8.1,5.2-16.7,7.6-26.1,7.6
		c-21.9,0-36.9-16.2-36.9-39.9c0-23.9,16-41.6,37.5-41.6c6.5,0,9.4,0.8,17.9,4.7c1.3,0.6,2,0.8,2.6,0.8c1.1,0,1.9-0.6,2.7-2V88.1z"
		/>
	<path class="st0" d="M538.1,105.9c0,22.6-17.1,40.5-38.5,40.5c-21.3,0-38.5-18-38.5-40.3c0-23.2,16.9-41.2,38.6-41.2
		C521.3,64.8,538.1,82.8,538.1,105.9z M472.4,105.6c0,18.3,12,32.8,27.3,32.8c15.3,0,27.3-14.3,27.3-32.8c0-18.5-12-32.9-27.3-32.9
		C484.2,72.7,472.4,87,472.4,105.6z"/>
	<path class="st0" d="M117,173.6c-1.1,0-2.9-0.4-3.8-1c-0.4-0.2-0.7-0.6-0.7-1c0-0.7,0.6-1.2,1.3-1.2c0.2,0,0.4,0,0.5,0.1
		c0.9,0.4,1.7,0.7,2.7,0.7c1.3,0,2.1-0.7,2.1-2c0-3.2-6.3-2.8-6.3-7.4c0-2.7,2.2-4.3,4.7-4.3c1.1,0,2.2,0.3,3.2,0.7
		c0.5,0.2,0.9,0.6,0.9,1.2c0,0.7-0.6,1.2-1.3,1.2c-0.2,0-0.4,0-0.6-0.1c-0.8-0.3-1.4-0.6-2.3-0.6c-1.1,0-1.8,0.5-1.8,1.7
		c0,2.9,6.3,2.6,6.3,7.4C122,171.9,119.8,173.6,117,173.6z"/>
	<path class="st0" d="M136,160.2h-2.4v12.1c0,0.7-0.6,1.2-1.3,1.2c-0.7,0-1.3-0.5-1.3-1.3v-11.2c0-0.5-0.4-0.9-0.9-0.9h-1.6
		c-0.7,0-1.3-0.5-1.3-1.2c0-0.7,0.6-1.2,1.3-1.2h7.5c0.7,0,1.2,0.5,1.2,1.2C137.3,159.7,136.7,160.2,136,160.2z"/>
	<path class="st0" d="M165.2,160.2h-2.4v12.1c0,0.7-0.6,1.2-1.3,1.2c-0.7,0-1.3-0.5-1.3-1.3v-11.2c0-0.5-0.4-0.9-0.9-0.9h-1.6
		c-0.7,0-1.3-0.5-1.3-1.2c0-0.7,0.6-1.2,1.3-1.2h7.5c0.7,0,1.2,0.5,1.2,1.2C166.5,159.7,165.9,160.2,165.2,160.2z"/>
	<path class="st0" d="M180,173.3h-5.7c-0.7,0-1.4-0.5-1.4-1.2v-13c0-0.7,0.6-1.3,1.4-1.3h5.7c0.7,0,1.2,0.5,1.2,1.2
		c0,0.7-0.6,1.2-1.3,1.2h-4.3v2.9c0,0.5,0.4,0.9,0.9,0.9h2.5c0.7,0,1.2,0.5,1.2,1.2c0,0.7-0.6,1.2-1.2,1.2h-3.4v3.7
		c0,0.5,0.4,0.9,0.9,0.9h3.5c0.7,0,1.2,0.5,1.2,1.2C181.2,172.8,180.7,173.3,180,173.3z"/>
	<path class="st0" d="M203.6,173.6c-3.5,0-4.9-1.9-4.9-4.7v-10.1c0-0.7,0.6-1.3,1.3-1.3c0.7,0,1.3,0.5,1.3,1.2v10.1
		c0,1.6,0.5,2.4,2.2,2.4c1.7,0,2.5-0.7,2.5-2.4v-10.1c0-0.7,0.6-1.3,1.3-1.3c0.7,0,1.3,0.5,1.3,1.2V169
		C208.8,171.8,207.2,173.6,203.6,173.6z"/>
	<path class="st0" d="M225.8,173.3H225c-0.5,0-1-0.2-1.2-0.7l-4.1-8.6c-0.1-0.1-0.1-0.2-0.2-0.2c-0.1,0-0.2,0.1-0.2,0.2v8.1
		c0,0.7-0.6,1.3-1.3,1.3c-0.7,0-1.3-0.5-1.3-1.2V159c0-0.7,0.6-1.3,1.4-1.3h0.8c0.5,0,1,0.2,1.2,0.7l4.1,8.6
		c0.1,0.1,0.1,0.2,0.2,0.2c0.1,0,0.2-0.1,0.2-0.2v-8.2c0-0.7,0.6-1.3,1.3-1.3c0.7,0,1.3,0.5,1.3,1.2v13.3
		C227.2,172.8,226.6,173.3,225.8,173.3z"/>
	<path class="st0" d="M240.4,173.3h-5.1c-0.7,0-1.2-0.5-1.2-1.1c0-0.7,0.5-1.1,1.2-1.1h1.2v-10.2c0-0.4-0.4-0.8-0.8-0.8h-0.4
		c-0.7,0-1.2-0.5-1.2-1.2c0-0.6,0.5-1.1,1.2-1.1h5.1c0.7,0,1.2,0.5,1.2,1.1c0,0.6-0.5,1.1-1.2,1.1h-1.2v10.2c0,0.5,0.3,0.8,0.8,0.8
		h0.4c0.6,0,1.2,0.5,1.2,1.1C241.6,172.8,241.1,173.3,240.4,173.3z"/>
	<path class="st0" d="M254.2,172.7c-0.2,0.6-1,0.9-1.4,0.9c-0.5,0-1.2-0.2-1.4-0.9l-4.1-13.5c-0.2-0.8,0.5-1.5,1.4-1.5
		c0.9,0,1.3,0.7,1.4,1.3l2.7,10.2c0,0.1,0.1,0.1,0.1,0.1c0.1,0,0.1-0.1,0.1-0.1l2.6-10.2c0.2-0.6,0.6-1.2,1.4-1.2
		c0.9,0,1.6,0.7,1.4,1.5L254.2,172.7z"/>
	<path class="st0" d="M271.9,173.3h-5.7c-0.7,0-1.4-0.5-1.4-1.2v-13c0-0.7,0.6-1.3,1.4-1.3h5.7c0.7,0,1.2,0.5,1.2,1.2
		c0,0.7-0.6,1.2-1.3,1.2h-4.3v2.9c0,0.5,0.4,0.9,0.9,0.9h2.5c0.7,0,1.2,0.5,1.2,1.2c0,0.7-0.6,1.2-1.2,1.2h-3.4v3.7
		c0,0.5,0.4,0.9,0.9,0.9h3.5c0.7,0,1.2,0.5,1.2,1.2C273.1,172.8,272.6,173.3,271.9,173.3z"/>
	<path class="st0" d="M299.7,173.6c-1.1,0-2.9-0.4-3.8-1c-0.4-0.2-0.7-0.6-0.7-1c0-0.7,0.6-1.2,1.3-1.2c0.2,0,0.4,0,0.5,0.1
		c0.9,0.4,1.7,0.7,2.7,0.7c1.3,0,2.1-0.7,2.1-2c0-3.2-6.3-2.8-6.3-7.4c0-2.7,2.2-4.3,4.7-4.3c1.1,0,2.2,0.3,3.2,0.7
		c0.5,0.2,0.9,0.6,0.9,1.2c0,0.7-0.6,1.2-1.3,1.2c-0.2,0-0.4,0-0.6-0.1c-0.8-0.3-1.4-0.6-2.3-0.6c-1.1,0-1.8,0.5-1.8,1.7
		c0,2.9,6.3,2.6,6.3,7.4C304.7,171.9,302.4,173.6,299.7,173.6z"/>
	<path class="st0" d="M316.7,173.3h-5.1c-0.7,0-1.2-0.5-1.2-1.1c0-0.7,0.5-1.1,1.2-1.1h1.2v-10.2c0-0.4-0.4-0.8-0.8-0.8h-0.4
		c-0.7,0-1.2-0.5-1.2-1.2c0-0.6,0.5-1.1,1.2-1.1h5.1c0.7,0,1.2,0.5,1.2,1.1c0,0.6-0.5,1.1-1.2,1.1h-1.2v10.2c0,0.5,0.3,0.8,0.8,0.8
		h0.4c0.6,0,1.2,0.5,1.2,1.1C317.9,172.8,317.3,173.3,316.7,173.3z"/>
	<path class="st0" d="M332.2,160.2h-2.4v12.1c0,0.7-0.6,1.2-1.3,1.2s-1.3-0.5-1.3-1.3v-11.2c0-0.5-0.4-0.9-0.9-0.9h-1.6
		c-0.7,0-1.3-0.5-1.3-1.2c0-0.7,0.6-1.2,1.3-1.2h7.5c0.7,0,1.2,0.5,1.2,1.2C333.4,159.7,332.8,160.2,332.2,160.2z"/>
	<path class="st0" d="M349.2,159.5l-3.9,7.2c-0.1,0.1-0.1,0.2-0.1,0.4v5.2c0,0.7-0.6,1.2-1.3,1.2c-0.7,0-1.3-0.5-1.3-1.3v-5.5
		l-3.9-7.3c-0.1-0.2-0.2-0.4-0.2-0.6c0-0.7,0.6-1.3,1.3-1.3c0.5,0,1,0.3,1.2,0.7l2.4,4.5c0.1,0.2,0.2,0.4,0.5,0.4
		c0.2,0,0.4-0.2,0.5-0.4l2.5-4.6c0.2-0.4,0.7-0.7,1.2-0.7c0.7,0,1.3,0.5,1.3,1.2C349.3,159.1,349.2,159.3,349.2,159.5z"/>
	<path class="st0" d="M372.1,173.6c-4.6,0-5.3-5.3-5.3-7.9c0-2.8,0.6-8.2,5.3-8.2c4.7,0,5.2,5.5,5.2,8.2
		C377.3,168.3,376.8,173.6,372.1,173.6z M372.1,159.7c-2.5,0-2.5,4.6-2.5,6c0,1.3,0.1,5.8,2.5,5.8c2.5,0,2.4-4.5,2.4-5.8
		C374.5,164.3,374.6,159.7,372.1,159.7z"/>
	<path class="st0" d="M391.3,160.2H387v3c0,0.5,0.4,0.9,0.9,0.9h2.5c0.7,0,1.2,0.5,1.2,1.2c0,0.7-0.6,1.2-1.2,1.2H387v5.9
		c0,0.7-0.6,1.3-1.3,1.3c-0.7,0-1.4-0.6-1.4-1.3v-13.2c0-0.7,0.6-1.3,1.4-1.3h5.7c0.7,0,1.2,0.5,1.2,1.2
		C392.5,159.6,392,160.2,391.3,160.2z"/>
	<path class="st0" d="M419.2,173.3h-0.8c-0.5,0-1-0.2-1.2-0.7l-4.1-8.6c-0.1-0.1-0.1-0.2-0.2-0.2c-0.1,0-0.2,0.1-0.2,0.2v8.1
		c0,0.7-0.6,1.3-1.3,1.3c-0.7,0-1.3-0.5-1.3-1.2V159c0-0.7,0.6-1.3,1.4-1.3h0.8c0.5,0,1,0.2,1.2,0.7l4.1,8.6
		c0.1,0.1,0.1,0.2,0.2,0.2c0.1,0,0.2-0.1,0.2-0.2v-8.2c0-0.7,0.6-1.3,1.3-1.3s1.3,0.5,1.3,1.2v13.3
		C420.6,172.8,419.9,173.3,419.2,173.3z"/>
	<path class="st0" d="M435.5,173.3h-5.7c-0.7,0-1.4-0.5-1.4-1.2v-13c0-0.7,0.6-1.3,1.4-1.3h5.7c0.7,0,1.2,0.5,1.2,1.2
		c0,0.7-0.6,1.2-1.3,1.2h-4.3v2.9c0,0.5,0.4,0.9,0.9,0.9h2.5c0.7,0,1.2,0.5,1.2,1.2c0,0.7-0.6,1.2-1.2,1.2h-3.4v3.7
		c0,0.5,0.4,0.9,0.9,0.9h3.5c0.7,0,1.2,0.5,1.2,1.2C436.7,172.8,436.2,173.3,435.5,173.3z"/>
	<path class="st0" d="M454.5,172.7c-0.2,0.7-1,0.9-1.4,0.9s-1.3-0.2-1.4-0.9l-1.7-8.3c0-0.1-0.1-0.1-0.1-0.1c-0.1,0-0.1,0.1-0.1,0.1
		l-1.8,8.3c-0.1,0.7-1,0.9-1.4,0.9c-0.5,0-1.3-0.2-1.4-0.9l-3.1-13.6c-0.2-0.9,0.7-1.5,1.4-1.5c0.8,0,1.3,0.7,1.4,1.3l1.5,8.7
		c0,0.1,0.1,0.1,0.1,0.1c0.1,0,0.1-0.1,0.1-0.1l1.7-8.7c0.1-0.6,0.4-1.3,1.4-1.3c1,0,1.3,0.6,1.5,1.3l1.8,8.7c0,0.1,0,0.1,0.1,0.1
		c0.1,0,0.1-0.1,0.1-0.1l1.4-8.7c0.1-0.6,0.6-1.3,1.4-1.3c0.7,0,1.7,0.6,1.4,1.5L454.5,172.7z"/>
	<path class="st0" d="M484.6,159.5l-3.9,7.2c-0.1,0.1-0.1,0.2-0.1,0.4v5.2c0,0.7-0.6,1.2-1.3,1.2c-0.7,0-1.3-0.5-1.3-1.3v-5.5
		l-3.9-7.3c-0.1-0.2-0.2-0.4-0.2-0.6c0-0.7,0.6-1.3,1.3-1.3c0.5,0,1,0.3,1.2,0.7l2.4,4.5c0.1,0.2,0.2,0.4,0.5,0.4
		c0.2,0,0.4-0.2,0.5-0.4l2.5-4.6c0.2-0.4,0.7-0.7,1.2-0.7c0.7,0,1.3,0.5,1.3,1.2C484.8,159.1,484.7,159.3,484.6,159.5z"/>
	<path class="st0" d="M495.2,173.6c-4.6,0-5.3-5.3-5.3-7.9c0-2.8,0.6-8.2,5.3-8.2c4.7,0,5.2,5.5,5.2,8.2
		C500.4,168.3,499.9,173.6,495.2,173.6z M495.2,159.7c-2.5,0-2.5,4.6-2.5,6c0,1.3,0.1,5.8,2.5,5.8c2.5,0,2.4-4.5,2.4-5.8
		C497.6,164.3,497.7,159.7,495.2,159.7z"/>
	<path class="st0" d="M532.4,173.5c-0.5,0-0.8-0.2-1.1-0.5l-4.5-5.9h-0.1v5.1c0,0.7-0.6,1.3-1.3,1.3c-0.7,0-1.3-0.6-1.3-1.3v-13.4
		c0-0.7,0.6-1.3,1.3-1.3c0.7,0,1.3,0.6,1.3,1.3v3.5c0,0.4,0.4,0.8,0.8,0.8l3.4-4.6c0.2-0.3,0.7-0.4,1-0.4c0.7,0,1.2,0.5,1.2,1.2
		c0,0.2,0,0.4-0.2,0.6l-3.8,5c-0.1,0.2-0.2,0.3-0.2,0.6c0,0.1,0,0.2,0.1,0.3l4.4,5.7c0.2,0.2,0.3,0.5,0.3,0.6
		C533.7,172.9,533.2,173.5,532.4,173.5z"/>
	<path class="st0" d="M151.4,173.6c-0.9,0-1.3-0.7-1.5-1.3l-0.5-1.4c-0.1-0.4-0.3-0.8-0.8-0.8h-3.5l-0.8,2.2
		c-0.1,0.6-0.6,1.3-1.5,1.3c-0.9,0-1.6-0.7-1.4-1.6l4.2-13.7c0.2-0.7,0.9-0.9,1.4-0.9c0.5,0,1.3,0.2,1.5,0.9l4.2,13.7
		C153.1,172.9,152.3,173.6,151.4,173.6z M147.3,161.2c0-0.1-0.1-0.1-0.1-0.1c-0.1,0-0.1,0-0.1,0.1l-1.2,5c-0.3,1.2,0,1.4,0.4,1.4
		l2.6,0L147.3,161.2z"/>
	<path class="st0" d="M288,173.6c-0.4,0-0.9-0.1-1.1-0.6l-3-5.8c-0.1-0.3-0.5-0.4-0.8-0.4h-1v5.4c0,0.7-0.6,1.3-1.3,1.3
		c-0.7,0-1.3-0.5-1.3-1.3V159c0-0.7,0.6-1.3,1.4-1.3h3.2c1.7,0,4.9,0.1,4.9,4.4c0,2.5-1.1,3.8-2.6,4.4c0.9,1.8,1.8,3.6,2.9,5.4
		c0,0.1,0.1,0.2,0.1,0.5C289.4,173,288.8,173.6,288,173.6z M283.9,159.8h-1.7l0,4.1c0,0.5,0.4,0.9,0.9,0.9h0.5
		c1.5,0,2.6-0.2,2.6-2.7C286.3,160.1,285.3,159.8,283.9,159.8z"/>
	<path class="st0" d="M515.9,173.6c-0.4,0-0.9-0.1-1.1-0.6l-3-5.8c-0.1-0.3-0.5-0.4-0.8-0.4h-1v5.4c0,0.7-0.6,1.3-1.3,1.3
		c-0.7,0-1.3-0.5-1.3-1.3v-13.4c0-0.7,0.6-1.3,1.4-1.3h3.2c1.7,0,4.9,0.1,4.9,4.4c0,2.5-1.1,3.8-2.6,4.4c0.9,1.8,1.8,3.6,2.9,5.4
		c0,0.1,0.1,0.3,0.1,0.5C517.2,173,516.6,173.6,515.9,173.6z M511.7,159.8H510l0,4.1c0,0.5,0.4,0.9,0.9,0.9h0.5
		c1.5,0,2.6-0.2,2.6-2.7C514.1,160.1,513.1,159.8,511.7,159.8z"/>
	<g>
		<path class="st0" d="M43,26.9c0,0-11.8,3.5-11.8,21.1l7.5,3.5l9.3-1.4C47.9,50.1,47.9,33.2,43,26.9L43,26.9z"/>
		<path class="st0" d="M44.8,27.6c0,0,10.7,1.8,13.9,19.7c0.2,0.9-1-0.3-0.9,0.7C57.9,48,55.2,33.2,44.8,27.6L44.8,27.6z"/>
		<polygon class="st0" points="22.8,51.6 37.3,54.7 37.3,70.3 12.4,89.8 12.4,75 7.6,75 22.8,51.6 		"/>
		<path class="st0" d="M58,55.5c0,0-22.5,8.8,2.8,21.8C60.7,77.3,45.5,66.9,58,55.5L58,55.5z"/>
		<path class="st0" d="M59.3,61c0,0-3.8,6.3,1.4,9.4C60.7,70.3,52,66.2,59.3,61L59.3,61z"/>
		<polyline class="st0" points="44.4,0 42.4,6.8 42.4,27.3 44.2,27.6 		"/>
		<path class="st0" d="M41.5,27.5c0,0-0.7-5.4,1.7-5.4c1.7,0,0.8,0,0.8,0s1.9,0.5,1.5,5.4C45.5,27.6,43.9,28.9,41.5,27.5L41.5,27.5z
			"/>
		<path class="st0" d="M43.3,20.7c0.9,0,1.6-0.8,1.6-1.8c0-1-0.7-1.8-1.6-1.8c-0.9,0-1.6,0.8-1.6,1.8C41.7,19.9,42.5,20.7,43.3,20.7
			L43.3,20.7z"/>
		<path class="st0" d="M57.1,108.7c0,0,6.9-3.6,13.3,4.7l-0.2,42.9C70.2,156.3,70.5,106.4,57.1,108.7L57.1,108.7z"/>
		<polygon class="st0" points="0,102.1 1.4,107.2 8.2,109.8 8.2,172.4 44,151.1 44,88.4 85.8,107.5 90.8,99.4 43,78.8 43,75.9 
			93,97.1 93.4,93.7 42.8,72.5 40.3,72.5 		"/>
		<polygon class="st0" points="1,179.7 4.9,183.3 7.9,187.1 41.5,172.4 45.4,171.1 45.4,159.6 91.4,176.5 92.5,172.9 45.1,157.3 
			41.8,157.3 		"/>
		<polygon class="st0" points="45.5,54.4 45.6,55 59.9,52.7 76.2,72 76.2,67.1 60.1,52 		"/>
	</g>
</g>
</svg>
