<svg id="Layer_1" data-name="Layer 1" xmlns="http://www.w3.org/2000/svg" viewBox="0 0 538.11 187.07"><defs><style>.cls-1{fill:#235937;}</style></defs><title>oswego-green</title><path class="cls-1" d="M184.29,105.85c0,22.58-17.05,40.46-38.46,40.46s-38.46-18-38.46-40.34c0-23.17,16.93-41.16,38.57-41.16S184.29,82.81,184.29,105.85Zm-65.74-.24c0,18.35,12,32.81,27.28,32.81s27.28-14.35,27.28-32.81-12-32.93-27.28-32.93S118.55,87,118.55,105.62Z"/><path class="cls-1" d="M233.79,85.75c-2.94-8.23-10.23-13.05-19.87-13.05-8.94,0-15.76,5.64-15.76,13.05,0,5.17,1.76,8.12,6.59,10.7,1.76.94,5.53,2.47,13.05,5.17,15.29,5.64,21.29,11.64,21.29,21.52,0,13.64-11.17,23.17-27,23.17-6.47,0-10.58-1.06-19.05-4.71a4.84,4.84,0,0,0-2-.47c-1.29,0-2.35,1.18-2.71,2.94V125.26c4.59,8.7,12.23,13.17,22.7,13.17,10.23,0,17.29-5.41,17.29-13.29A11.24,11.24,0,0,0,224,116c-2.59-2-6.23-3.64-15.88-7.05-14.94-5.29-20.82-11.41-20.82-22,0-12.7,11.17-22.11,26.34-22.11,4.47,0,7.29.59,12.47,2.82,2.82,1.06,4.12,1.53,4.94,1.53,1.29,0,2-.71,2.71-2.35V85.75Z"/><path class="cls-1" d="M285.29,66.34H292l20.23,66.21,14.23-60a8.71,8.71,0,0,0,.35-2.23c0-2-.71-3.06-2.94-4h14.82C336,67.64,334.91,69,334,73l-17,72.32H305.51L287,84.8l-18.93,60.56H256.94L239.77,73c-.94-4.35-1.65-5.29-4.35-6.7h17.29c-1.88.59-2.59,1.41-2.59,2.94a21.87,21.87,0,0,0,.47,3.29L264.7,131.8Z"/><path class="cls-1" d="M350.38,137.37H381c4.35,0,5.64-.82,7.17-4.59v12H336.5c2.47-.82,3.18-2,3.18-5.64V71.87c0-3.65-.82-4.94-3.18-5.53h49.74V78.1c-1.06-3.41-2.35-4.35-6.23-4.35H350.38v26.69h26.93c3.18,0,4.35-.82,5.41-3.64v14.58c-.82-2.71-2.35-3.53-5.88-3.53H350.38v29.52Z"/><path class="cls-1" d="M450.55,88.1C446,77.75,438.91,72.7,428.79,72.7c-15.87,0-27.79,14.1-27.79,33.15s11.17,32.58,26.93,32.58a30.7,30.7,0,0,0,14.23-3.53V116.32c0-3.76-.94-4.94-4.7-6h19.29c-3.29.94-3.88,1.88-3.88,6v22.34a47.29,47.29,0,0,1-26.11,7.64c-21.87,0-36.93-16.23-36.93-39.87,0-23.87,16-41.63,37.51-41.63,6.47,0,9.41.82,17.88,4.7a6.77,6.77,0,0,0,2.59.82c1.06,0,1.88-.59,2.71-2V88.1Z"/><path class="cls-1" d="M538.11,105.85c0,22.58-17,40.46-38.46,40.46s-38.46-18-38.46-40.34c0-23.17,16.93-41.16,38.57-41.16S538.11,82.81,538.11,105.85Zm-65.74-.23c0,18.34,12,32.81,27.28,32.81s27.28-14.35,27.28-32.81-12-32.93-27.28-32.93S472.37,87,472.37,105.62Z"/><path class="cls-1" d="M117,173.63a8.69,8.69,0,0,1-3.85-1,1.17,1.17,0,0,1-.66-1,1.26,1.26,0,0,1,1.29-1.22,1.19,1.19,0,0,1,.54.14,7.19,7.19,0,0,0,2.74.7,1.89,1.89,0,0,0,2.11-2c0-3.17-6.29-2.76-6.29-7.45,0-2.7,2.22-4.28,4.73-4.28a7.34,7.34,0,0,1,3.17.75,1.26,1.26,0,0,1,.91,1.18,1.24,1.24,0,0,1-1.27,1.2,1.61,1.61,0,0,1-.57-.11,5.81,5.81,0,0,0-2.29-.61,1.59,1.59,0,0,0-1.83,1.67c0,2.85,6.27,2.56,6.27,7.43C122,171.91,119.82,173.63,117,173.63Z"/><path class="cls-1" d="M136,160.18h-2.4V172.3a1.26,1.26,0,0,1-1.28,1.24h0a1.3,1.3,0,0,1-1.34-1.26h0V161.08a.9.9,0,0,0-.88-.91h-1.59a1.22,1.22,0,0,1-1.27-1.17h0a1.24,1.24,0,0,1,1.27-1.2H136a1.23,1.23,0,0,1,1.25,1.2,1.21,1.21,0,0,1-1.23,1.19Z"/><path class="cls-1" d="M165.25,160.18h-2.4V172.3a1.26,1.26,0,0,1-1.28,1.24h0a1.3,1.3,0,0,1-1.34-1.26h0V161.08a.9.9,0,0,0-.88-.91h-1.59a1.22,1.22,0,0,1-1.27-1.17h0a1.24,1.24,0,0,1,1.27-1.2h7.52a1.23,1.23,0,0,1,1.25,1.2,1.21,1.21,0,0,1-1.23,1.19Z"/><path class="cls-1" d="M180,173.31h-5.68a1.31,1.31,0,0,1-1.36-1.25V159a1.33,1.33,0,0,1,1.36-1.27H180a1.21,1.21,0,0,1,1.2,1.22V159a1.26,1.26,0,0,1-1.27,1.22H175.6v2.94a.91.91,0,0,0,.91.91H179a1.18,1.18,0,0,1,0,2.36h-3.4v3.69a.88.88,0,0,0,.88.88H180a1.18,1.18,0,1,1,0,2.31Z"/><path class="cls-1" d="M203.64,173.63c-3.53,0-4.89-1.92-4.89-4.71V158.86a1.31,1.31,0,0,1,1.34-1.27,1.28,1.28,0,0,1,1.34,1.22v10.11c0,1.59.54,2.4,2.24,2.4s2.49-.7,2.49-2.4V158.86a1.31,1.31,0,0,1,1.34-1.27,1.28,1.28,0,0,1,1.34,1.22V169C208.82,171.77,207.19,173.63,203.64,173.63Z"/><path class="cls-1" d="M225.83,173.33H225a1.29,1.29,0,0,1-1.18-.68l-4.08-8.58a.21.21,0,0,0-.41.09v8.11a1.31,1.31,0,0,1-1.33,1.29h0a1.29,1.29,0,0,1-1.34-1.24h0V159a1.33,1.33,0,0,1,1.36-1.27h.81a1.31,1.31,0,0,1,1.2.68l4.05,8.63a.2.2,0,1,0,.4-.07v-8.2a1.31,1.31,0,0,1,1.34-1.27,1.28,1.28,0,0,1,1.34,1.22V172A1.32,1.32,0,0,1,225.83,173.33Z"/><path class="cls-1" d="M240.42,173.33h-5.07a1.18,1.18,0,0,1-1.2-1.13,1.15,1.15,0,0,1,1.17-1.13h1.23V160.83a.78.78,0,0,0-.79-.77h-.41a1.14,1.14,0,1,1,0-2.29h5.07a1.13,1.13,0,1,1,0,2.26h-1.21v10.23a.77.77,0,0,0,.75.79h.45a1.14,1.14,0,0,1,1.18,1.1v0a1.16,1.16,0,0,1-1.17,1.15Z"/><path class="cls-1" d="M254.21,172.72a1.49,1.49,0,0,1-1.45.86,1.46,1.46,0,0,1-1.43-.86l-4.14-13.54a1.26,1.26,0,0,1,1.36-1.54,1.53,1.53,0,0,1,1.45,1.27l2.67,10.17a.17.17,0,0,0,.14.14.13.13,0,0,0,.14-.12.13.13,0,0,0,0,0l2.6-10.21a1.49,1.49,0,0,1,1.45-1.22,1.26,1.26,0,0,1,1.36,1.54Z"/><path class="cls-1" d="M271.88,173.31H266.2a1.31,1.31,0,0,1-1.36-1.25V159a1.33,1.33,0,0,1,1.36-1.27h5.66a1.21,1.21,0,0,1,1.24,1.18s0,.06,0,.09a1.26,1.26,0,0,1-1.27,1.22h-4.32v2.94a.91.91,0,0,0,.91.91h2.49a1.18,1.18,0,0,1,0,2.36h-3.4v3.69a.88.88,0,0,0,.88.88h3.51a1.18,1.18,0,1,1,0,2.31Z"/><path class="cls-1" d="M299.65,173.63a8.7,8.7,0,0,1-3.85-1,1.18,1.18,0,0,1-.66-1,1.26,1.26,0,0,1,1.29-1.22,1.22,1.22,0,0,1,.55.14,7.18,7.18,0,0,0,2.74.7,1.89,1.89,0,0,0,2.11-2c0-3.17-6.3-2.76-6.3-7.45,0-2.7,2.22-4.28,4.73-4.28a7.34,7.34,0,0,1,3.17.75,1.26,1.26,0,0,1,.9,1.18,1.24,1.24,0,0,1-1.27,1.2,1.62,1.62,0,0,1-.57-.11,5.81,5.81,0,0,0-2.29-.61,1.59,1.59,0,0,0-1.83,1.67c0,2.85,6.27,2.56,6.27,7.43C304.66,171.91,302.44,173.63,299.65,173.63Z"/><path class="cls-1" d="M316.67,173.33H311.6a1.18,1.18,0,0,1-1.2-1.13,1.15,1.15,0,0,1,1.17-1.13h1.23V160.83a.78.78,0,0,0-.79-.77h-.41a1.14,1.14,0,0,1,0-2.29h5.07a1.13,1.13,0,1,1,0,2.26h-1.21v10.23a.77.77,0,0,0,.75.79h.45a1.14,1.14,0,0,1,1.18,1.1v0a1.16,1.16,0,0,1-1.17,1.15Z"/><path class="cls-1" d="M332.16,160.18h-2.4V172.3a1.26,1.26,0,0,1-1.28,1.24h0a1.3,1.3,0,0,1-1.34-1.26h0V161.08a.9.9,0,0,0-.88-.91h-1.59a1.22,1.22,0,0,1-1.27-1.17h0a1.24,1.24,0,0,1,1.27-1.2h7.52a1.23,1.23,0,0,1,1.25,1.2,1.21,1.21,0,0,1-1.23,1.19Z"/><path class="cls-1" d="M349.16,159.45l-3.89,7.25a.76.76,0,0,0-.11.38v5.21a1.28,1.28,0,0,1-1.32,1.24h0a1.29,1.29,0,0,1-1.33-1.25v-5.5l-3.89-7.29a1.24,1.24,0,0,1-.16-.57,1.31,1.31,0,0,1,1.34-1.27,1.37,1.37,0,0,1,1.2.7l2.42,4.53a.59.59,0,0,0,.48.38.51.51,0,0,0,.45-.38l2.47-4.57a1.33,1.33,0,0,1,1.18-.7,1.31,1.31,0,0,1,1.34,1.25A1.33,1.33,0,0,1,349.16,159.45Z"/><path class="cls-1" d="M372.1,173.6c-4.64,0-5.25-5.32-5.25-7.95s.61-8.22,5.25-8.22,5.23,5.5,5.23,8.22S376.81,173.6,372.1,173.6Zm0-13.95c-2.49,0-2.51,4.55-2.51,6s.07,5.78,2.51,5.78,2.42-4.48,2.42-5.78.07-6-2.42-6Z"/><path class="cls-1" d="M391.28,160.15H387v3a.9.9,0,0,0,.88.88h2.52a1.18,1.18,0,1,1,.22,2.35H387v5.89a1.29,1.29,0,0,1-1.31,1.27h0a1.32,1.32,0,0,1-1.36-1.27v-13.2a1.34,1.34,0,0,1,1.36-1.29h5.66A1.22,1.22,0,0,1,392.6,159h0a1.23,1.23,0,0,1-1.29,1.17Z"/><path class="cls-1" d="M419.2,173.33h-.82a1.29,1.29,0,0,1-1.18-.68l-4.08-8.58a.26.26,0,0,0-.18-.16.27.27,0,0,0-.23.25v8.11a1.32,1.32,0,0,1-1.34,1.29,1.29,1.29,0,0,1-1.34-1.24h0V159a1.33,1.33,0,0,1,1.36-1.27h.82a1.31,1.31,0,0,1,1.2.68l4,8.63a.2.2,0,1,0,.4-.07v-8.2a1.31,1.31,0,0,1,1.34-1.27,1.28,1.28,0,0,1,1.34,1.22V172a1.32,1.32,0,0,1-1.33,1.31Z"/><path class="cls-1" d="M435.46,173.31h-5.68a1.31,1.31,0,0,1-1.36-1.25V159a1.33,1.33,0,0,1,1.36-1.27h5.66a1.21,1.21,0,0,1,1.25,1.17h0a1.26,1.26,0,0,1-1.27,1.22H431.1v2.94a.91.91,0,0,0,.91.91h2.49a1.18,1.18,0,0,1,0,2.36h-3.4V170a.88.88,0,0,0,.88.88h3.51a1.2,1.2,0,1,1,0,2.4Z"/><path class="cls-1" d="M454.5,172.68a1.43,1.43,0,0,1-1.45.91,1.39,1.39,0,0,1-1.45-.91l-1.74-8.27a.17.17,0,0,0-.14-.13.13.13,0,0,0-.14.12h0l-1.77,8.27a1.39,1.39,0,0,1-1.45.91,1.43,1.43,0,0,1-1.45-.91l-3.06-13.56a1.35,1.35,0,0,1,1.22-1.47h.23a1.51,1.51,0,0,1,1.45,1.31l1.47,8.65a.14.14,0,1,0,.27,0l1.74-8.65a1.47,1.47,0,0,1,2.92,0l1.77,8.65a.13.13,0,0,0,.12.14h0a.17.17,0,0,0,.14-.14l1.45-8.65a1.49,1.49,0,0,1,1.45-1.31,1.35,1.35,0,0,1,1.45,1.47Z"/><path class="cls-1" d="M484.62,159.45l-3.9,7.25a.78.78,0,0,0-.11.38v5.21a1.28,1.28,0,0,1-1.32,1.24h0a1.3,1.3,0,0,1-1.34-1.26h0v-5.48L474,159.5a1.27,1.27,0,0,1-.16-.57,1.31,1.31,0,0,1,1.34-1.27,1.37,1.37,0,0,1,1.2.7l2.42,4.53a.59.59,0,0,0,.48.38.5.5,0,0,0,.45-.38l2.47-4.57a1.33,1.33,0,0,1,1.18-.7,1.31,1.31,0,0,1,1.34,1.25A1.33,1.33,0,0,1,484.62,159.45Z"/><path class="cls-1" d="M495.21,173.6c-4.64,0-5.25-5.32-5.25-7.95s.61-8.22,5.25-8.22,5.23,5.5,5.23,8.22S499.91,173.6,495.21,173.6Zm0-13.95c-2.49,0-2.51,4.55-2.51,6s.07,5.78,2.51,5.78,2.42-4.48,2.42-5.78.07-6-2.42-6Z"/><path class="cls-1" d="M532.4,173.53a1.35,1.35,0,0,1-1.09-.5l-4.48-5.87h-.07v5.12a1.34,1.34,0,0,1-2.67,0V158.91a1.31,1.31,0,0,1,1.34-1.27,1.28,1.28,0,0,1,1.31,1.25v3.48a.86.86,0,0,0,.84.81l3.35-4.55a1.24,1.24,0,0,1,1-.41,1.21,1.21,0,0,1,1.25,1.17h0a1,1,0,0,1-.18.63l-3.8,5a1,1,0,0,0-.25.57.58.58,0,0,0,.07.34l4.41,5.68a1.13,1.13,0,0,1,.29.63,1.24,1.24,0,0,1-1.2,1.28Z"/><path class="cls-1" d="M151.43,173.62a1.55,1.55,0,0,1-1.46-1.3l-.49-1.37a.86.86,0,0,0-.78-.8h-3.55l-.79,2.18a1.57,1.57,0,0,1-1.46,1.3,1.27,1.27,0,0,1-1.37-1.55l4.19-13.68a1.42,1.42,0,0,1,1.44-.87,1.47,1.47,0,0,1,1.46.87L152.8,172a1.28,1.28,0,0,1-1.37,1.62Zm-4.15-12.37a.14.14,0,0,0-.27,0l-1.15,5c-.3,1.18,0,1.45.39,1.45h2.61Z"/><path class="cls-1" d="M288,173.62a1.26,1.26,0,0,1-1.12-.57l-3-5.76a.86.86,0,0,0-.75-.39h-1v5.42a1.35,1.35,0,0,1-2.7,0V159a1.35,1.35,0,0,1,1.37-1.28H284c1.69,0,4.87.12,4.87,4.37,0,2.52-1.1,3.84-2.59,4.44.94,1.78,1.83,3.61,2.86,5.4a1,1,0,0,1,.14.46A1.28,1.28,0,0,1,288,173.62Zm-4.11-13.77h-1.71v4.07a.91.91,0,0,0,.89.91h.55c1.53,0,2.57-.16,2.61-2.74,0-2-1-2.24-2.29-2.24Z"/><path class="cls-1" d="M515.85,173.6a1.25,1.25,0,0,1-1.12-.57l-3-5.76a.86.86,0,0,0-.76-.39h-1v5.42a1.35,1.35,0,1,1-2.7,0V158.94a1.34,1.34,0,0,1,1.37-1.28h3.2c1.69,0,4.87.12,4.87,4.37,0,2.52-1.1,3.84-2.58,4.44.94,1.79,1.83,3.61,2.86,5.4a1,1,0,0,1,.14.46A1.28,1.28,0,0,1,515.85,173.6Zm-4.11-13.77H510v4.07a.91.91,0,0,0,.89.91h.55c1.53,0,2.57-.15,2.61-2.74,0-2-1-2.24-2.3-2.24Z"/><path class="cls-1" d="M43,26.92S31.15,30.43,31.15,48l7.45,3.51,9.31-1.4s0-16.85-5-23.17h0Z"/><path class="cls-1" d="M44.81,27.62S55.5,29.43,58.7,47.31c.16.91-1-.34-.85.66,0,0-2.69-14.74-13-20.36h0Z"/><polygon class="cls-1" points="22.77 51.61 37.26 54.73 37.26 70.33 12.42 89.83 12.42 75.01 7.59 75.01 22.77 51.61 22.77 51.61"/><path class="cls-1" d="M58,55.51s-22.54,8.84,2.76,21.84c0,0-15.18-10.4-2.76-21.84Z"/><path class="cls-1" d="M59.34,61s-3.76,6.32,1.38,9.36c0,0-8.74-4.16-1.38-9.36Z"/><polyline class="cls-1" points="44.45 0 42.38 6.76 42.38 27.3 44.19 27.63"/><path class="cls-1" d="M41.5,27.51s-.73-5.41,1.71-5.38H44s1.91.53,1.5,5.44a3.68,3.68,0,0,1-4-.06h0Z"/><path class="cls-1" d="M43.35,20.74A1.72,1.72,0,0,0,45,19v0a1.62,1.62,0,1,0-3.22,0,1.72,1.72,0,0,0,1.61,1.82h0Z"/><path class="cls-1" d="M57.1,108.68S64,105,70.44,113.36l-.23,42.9s.32-49.86-13.11-47.58Z"/><polygon class="cls-1" points="0 102.05 1.38 107.25 8.22 109.85 8.22 172.38 43.99 151.06 43.99 88.38 85.85 107.51 90.76 99.42 43.04 78.84 43.04 75.92 92.98 97.11 93.44 93.73 42.84 72.54 40.31 72.54 0 102.05"/><polygon class="cls-1" points="0.98 179.66 4.89 183.3 7.88 187.07 41.46 172.38 45.37 171.08 45.37 159.64 91.37 176.54 92.52 172.9 45.14 157.3 41.82 157.3 0.98 179.66"/><polygon class="cls-1" points="45.47 54.4 45.58 55.03 59.88 52.73 76.2 71.97 76.2 67.06 60.14 52.04 45.47 54.4"/></svg>